<?xml version="1.0" encoding="utf-8"?>
<!-- Generator: Adobe Illustrator 22.0.1, SVG Export Plug-In . SVG Version: 6.00 Build 0)  -->
<svg version="1.1" id="Layer_1" xmlns="http://www.w3.org/2000/svg" xmlns:xlink="http://www.w3.org/1999/xlink" x="0px" y="0px"
	 viewBox="0 0 425.2 199.5" style="enable-background:new 0 0 425.2 199.5;" xml:space="preserve">
<style type="text/css">
	.st0{fill:#FFFFFF;}
</style>
<g>
	<path class="st0" d="M15.3,156.6L15.3,156.6c18.6-28.3,49.5-47.9,85.1-51c2.9-0.3,5.2-2.7,5.2-5.6V63.5c0-3.3-2.9-6-6.2-5.6
		c-26.2,2.5-49.8,13.9-67.7,31.2c-11,10.4-18.4,23.8-21.7,38.4C7.6,137.5,9.7,148,15.3,156.6z"/>
	<path class="st0" d="M99.6,29.5C72,32.1,47.3,44.6,29,63.4c-13.6,14-21,32.8-21,52.3l0,0c17-35.3,51.7-60.5,92.6-64.1
		c2.8-0.2,5-2.6,5-5.4V35C105.5,31.8,102.8,29.2,99.6,29.5z"/>
	<path class="st0" d="M34.2,50.2c0,0-26.3,19.2-26.3,37.6c0,0-1-30,7.3-39.3C28.2,33.8,40.6,30.4,51,7.8l0,0
		C51.5,11.4,57.5,33.4,34.2,50.2z"/>
</g>
<g>
	<g>
		<g>
			<path class="st0" d="M281.7,128.1c-1.2-1.5-2.8-2.8-4.6-3.7c-1.8-0.9-3.9-1.3-6.3-1.3c-2.3,0-4.4,0.5-6.3,1.3
				c-1.8,0.9-3.4,2.1-4.6,3.7c-1.2,1.5-2.2,3.3-2.8,5.3c-0.6,2-0.9,4.1-0.9,6.3s0.3,4.3,0.9,6.3s1.6,3.8,2.8,5.3
				c1.2,1.5,2.8,2.7,4.6,3.6c1.8,0.9,3.9,1.3,6.3,1.3c2.3,0,4.4-0.5,6.3-1.3c1.8-0.9,3.4-2.1,4.6-3.6s2.2-3.3,2.8-5.3
				c0.6-2,0.9-4.1,0.9-6.3s-0.3-4.3-0.9-6.3C283.8,131.4,282.9,129.6,281.7,128.1z M280.1,144.3c-0.4,1.5-1.1,2.8-2,3.9
				c-0.8,1.1-1.9,2-3.1,2.6s-2.7,1-4.3,1c-1.6,0-3-0.3-4.3-1c-1.2-0.7-2.3-1.5-3.1-2.6c-0.9-1.1-1.5-2.4-2-3.9l0,0
				c-0.5-1.5-0.7-3.1-0.7-4.7c0-1.6,0.2-3.2,0.7-4.7c0.4-1.5,1.1-2.8,2-3.9c0.8-1.1,1.9-2,3.1-2.6s2.7-1,4.3-1c1.6,0,3,0.3,4.3,1
				c1.2,0.7,2.3,1.5,3.1,2.6c0.9,1.1,1.5,2.5,2,3.9c0.5,1.5,0.7,3.1,0.7,4.7S280.6,142.8,280.1,144.3z"/>
			<path class="st0" d="M314.9,124.2c-1.3,0-2.3,1-2.3,2.3V140v0.1c0,1.6-0.2,3.1-0.7,4.6c-0.4,1.5-1.1,2.8-2,3.9
				c-0.8,1.1-1.9,2-3.1,2.6s-2.7,1-4.3,1c-1.6,0-3-0.3-4.3-1c-1.2-0.7-2.3-1.5-3.1-2.6c-0.9-1.1-1.5-2.4-2-3.9s-0.7-3.1-0.7-4.6
				v-13.6c0-1.3-1-2.3-2.3-2.3s-2.3,1-2.3,2.3V140c0,2.2,0.3,4.3,0.9,6.3s1.6,3.8,2.8,5.3c1.2,1.5,2.8,2.7,4.6,3.6
				c1.8,0.9,3.9,1.3,6.3,1.3c2.3,0,4.4-0.5,6.3-1.3c1.8-0.9,3.4-2.1,4.6-3.6s2.2-3.3,2.8-5.3c0.6-2,0.9-4.1,0.9-6.3v-13.5
				C317.2,125.2,316.2,124.2,314.9,124.2z"/>
			<path class="st0" d="M155,113.1c-1.3,0-2.3,1-2.3,2.3v38.4c0,1.3,1,2.3,2.3,2.3s2.3-1,2.3-2.3v-38.4
				C157.3,114.1,156.3,113.1,155,113.1z"/>
			<path class="st0" d="M333.5,124.3c-4.1,0.2-13.7,2.2-13.7,15.5V154c0,1.2,1,2.1,2.1,2.1h0.4c1.2,0,2.1-1,2.1-2.1v-15.1
				c0-0.4,0.1-9.8,9.3-10.3c1.1-0.1,2-1,2-2.1v-0.1c0-0.6-0.2-1.1-0.7-1.5C334.7,124.5,334.1,124.3,333.5,124.3z"/>
			<path class="st0" d="M204.6,139.6l8.7-11.4c0.5-0.7,0.6-1.6,0.2-2.4c-0.4-0.8-1.2-1.3-2.1-1.3c-0.7,0-1.4,0.3-1.8,0.9l-7.9,10.5
				l-7.9-10.5c-0.4-0.6-1.1-0.9-1.8-0.9h-0.3c-0.9,0-1.7,0.5-2.1,1.3c-0.4,0.8-0.3,1.7,0.2,2.4l8.8,11.4l-9.6,12.9
				c-0.5,0.7-0.6,1.6-0.2,2.4c0.4,0.8,1.2,1.3,2.1,1.3c0.7,0,1.4-0.3,1.8-0.9l8.9-11.9l8.7,11.9c0.4,0.6,1.1,0.9,1.9,0.9h0.2
				c0.9,0,1.7-0.5,2.1-1.3c0.4-0.8,0.3-1.7-0.2-2.4L204.6,139.6z"/>
			<path class="st0" d="M359.3,140.4c-1-0.6-2.2-1.2-3.6-1.5c-1.2-0.3-2.5-0.7-3.8-0.9c-1.2-0.3-2.5-0.5-3.7-0.8
				c-1.1-0.2-2.1-0.6-3-1c-0.8-0.4-1.4-0.9-1.8-1.5c-0.4-0.5-0.6-1.3-0.6-2.3s0.2-1.8,0.7-2.4c0.5-0.7,1.1-1.2,1.9-1.5
				c0.8-0.4,1.7-0.7,2.7-0.8c0.5-0.1,1.2-0.1,2.2-0.2c1.1-0.1,2-1,2-2.2c0-0.6-0.2-1.2-0.7-1.6c-0.4-0.4-1-0.6-1.5-0.6
				c-1.1,0-2.2,0.2-3.3,0.4c-1.5,0.3-2.8,0.8-4.1,1.4c-1.3,0.7-2.3,1.7-3.1,2.8c-0.9,1.2-1.3,2.8-1.3,4.6c0,1.7,0.3,3.2,0.9,4.3
				c0.6,1.2,1.5,2.1,2.6,2.8c1,0.7,2.3,1.2,3.6,1.6c1.3,0.4,2.7,0.7,4.1,1c1.2,0.3,2.3,0.5,3.5,0.8c1.1,0.2,2,0.6,2.9,1
				c0.8,0.4,1.4,0.8,1.8,1.4c0.4,0.5,0.6,1.2,0.6,2.1c0,0.8-0.2,1.4-0.5,1.9c-0.4,0.6-0.9,1-1.6,1.4s-1.5,0.7-2.3,0.8
				c-2,0.4-4.1,0.3-5.9-0.1c-0.9-0.2-1.7-0.6-2.3-1.1c-0.4-0.3-0.7-0.7-1-1.1c-0.4-0.7-1.2-1-1.9-1c-0.9,0-1.6,0.5-2,1.2
				c-0.4,0.8-0.3,1.7,0.2,2.4s1,1.3,1.7,1.9c1,0.9,2.2,1.5,3.9,1.9c1.4,0.4,3,0.6,4.6,0.6c1.3,0,2.7-0.1,4-0.4
				c1.4-0.3,2.6-0.7,3.7-1.4c1.2-0.7,2.1-1.6,2.9-2.7c0.8-1.2,1.2-2.6,1.2-4.3s-0.3-3.1-1-4.3C361.3,142,360.4,141.1,359.3,140.4z"
				/>
			<path class="st0" d="M417.1,143.1c-0.7-1.1-1.6-2.1-2.7-2.7c-1-0.6-2.2-1.2-3.6-1.5c-1.2-0.3-2.5-0.7-3.8-0.9
				c-1.2-0.3-2.5-0.5-3.7-0.8c-1.1-0.2-2.1-0.6-2.9-1s-1.4-0.9-1.8-1.5c-0.4-0.5-0.6-1.3-0.6-2.3s0.2-1.8,0.7-2.4
				c0.5-0.7,1.1-1.2,1.9-1.5c0.8-0.4,1.7-0.7,2.7-0.8c0.5-0.1,1.2-0.1,2.2-0.2c1.1-0.1,2-1,2-2.2c0-0.6-0.2-1.2-0.7-1.6
				c-0.4-0.4-1-0.6-1.6-0.6c-1.1,0-2.2,0.2-3.3,0.4c-1.5,0.3-2.8,0.8-4,1.4c-1.3,0.7-2.3,1.7-3.1,2.8c-0.9,1.2-1.3,2.8-1.3,4.6
				c0,1.7,0.3,3.2,0.9,4.3c0.6,1.2,1.5,2.1,2.6,2.8c1,0.7,2.3,1.2,3.6,1.6c1.3,0.4,2.7,0.7,4.1,1l3.5,0.8c1.1,0.2,2,0.6,2.9,1
				c0.8,0.4,1.4,0.8,1.8,1.4c0.4,0.5,0.6,1.2,0.6,2.1c0,0.8-0.2,1.4-0.5,1.9c-0.4,0.6-0.9,1-1.6,1.4s-1.5,0.7-2.3,0.8
				c-2.1,0.4-4.1,0.3-5.9-0.1c-0.9-0.2-1.7-0.6-2.3-1.1c-0.4-0.3-0.7-0.7-1-1.1c-0.4-0.7-1.2-1-1.9-1c-0.9,0-1.6,0.5-2,1.2
				c-0.4,0.8-0.3,1.7,0.2,2.4s1,1.3,1.7,1.9c1,0.9,2.2,1.5,3.9,1.9c1.4,0.4,2.9,0.6,4.6,0.6c1.3,0,2.7-0.1,4-0.4
				c1.4-0.3,2.6-0.7,3.7-1.4c1.2-0.7,2.1-1.6,2.9-2.7c0.8-1.2,1.2-2.6,1.2-4.3C418.1,145.7,417.8,144.3,417.1,143.1z"/>
			<path class="st0" d="M387.6,125.2c-1-0.7-2.2-1.3-3.6-1.6c-1.3-0.3-2.7-0.5-4.1-0.5c-10.5,0-14.4,8.1-14.4,13.1v9.8
				c0,6.4,5.8,9.6,11.6,10h0.1c0.5,0,1.1-0.2,1.5-0.6c0.4-0.4,0.7-1,0.7-1.7v-0.1c0-1.1-0.8-2-1.9-2.1c-3.5-0.3-7.4-2.7-7.4-5.5
				v-9.4c0-1.8,0.5-3.5,1.6-5.1c0.7-1,1.6-1.9,2.9-2.7c1.2-0.8,3-1.2,5.2-1.2s3.9,0.5,4.9,1.5s1.5,2.2,1.5,3.6
				c0,1.9-0.6,2.8-1.6,3.6c-1.6,1.3-4.5,1.6-5.7,1.7c-1.1,0.1-2,1-2,2.1c0,0.6,0.2,1.2,0.7,1.6c0.4,0.4,1,0.6,1.6,0.6
				c1.8-0.1,4.5-0.5,7.4-2.1c1.2-0.6,2.2-1.6,3-3c0.8-1.3,1.2-2.9,1.2-4.8c0-1.7-0.3-3.2-0.9-4.4C389.5,127,388.6,125.9,387.6,125.2
				z M378.3,153.8L378.3,153.8L378.3,153.8L378.3,153.8z"/>
			<path class="st0" d="M183.7,125.2c-1-0.7-2.2-1.3-3.6-1.6c-1.3-0.3-2.7-0.5-4.1-0.5c-10.5,0-14.4,8.1-14.4,13.1v9.8
				c0,6.4,5.8,9.6,11.6,10h0.1c0.5,0,1.1-0.2,1.5-0.6c0.4-0.4,0.7-1,0.7-1.7v-0.1c0-1.1-0.8-2-1.9-2.1c-3.5-0.3-7.4-2.7-7.4-5.5
				v-9.4c0-1.8,0.5-3.5,1.6-5.1c0.7-1,1.6-1.9,2.9-2.7c1.2-0.8,3-1.2,5.2-1.2s3.9,0.5,4.9,1.5s1.5,2.2,1.5,3.6
				c0,1.9-0.6,2.8-1.6,3.6c-1.6,1.3-4.5,1.6-5.7,1.7c-1.1,0.1-2,1-2,2.1c0,0.6,0.2,1.2,0.7,1.6c0.4,0.4,1,0.6,1.6,0.6
				c1.8-0.1,4.5-0.5,7.4-2.1c1.2-0.6,2.2-1.6,3-3c0.8-1.3,1.2-2.9,1.2-4.8c0-1.7-0.3-3.2-0.9-4.4C185.5,127,184.7,125.9,183.7,125.2
				z M174.3,153.8L174.3,153.8L174.3,153.8L174.3,153.8z"/>
			<path class="st0" d="M141,132.3h-11.5c-1.7,0-3.1,1.4-3.1,3.1v20.1c0,1.3,1.1,2.3,2.3,2.3h0.4c1.3,0,2.3-1.1,2.3-2.3V137h9.6
				c1.3,0,2.3-1.1,2.3-2.3C143.3,133.3,142.3,132.3,141,132.3z"/>
			<path class="st0" d="M147.4,113.1h-18.7c-1.3,0-2.3,1.1-2.3,2.3l0,0c0,1.3,1.1,2.3,2.3,2.3h1.5h17.2c1.3,0,2.3-1.1,2.3-2.3
				S148.6,113.1,147.4,113.1z"/>
			<path class="st0" d="M252.6,150.9c-0.7-0.5-1.7-0.6-2.7-0.1l0,0c-1.6,0.7-3.2,1.1-5,1.1c-2.5,0-4.7-0.5-6.6-1.4
				c-1.9-0.9-3.6-2.2-4.9-3.8c-1.3-1.6-2.4-3.5-3.1-5.7c-0.7-2.2-1.1-4.5-1.1-7s0.4-4.8,1.1-7c0.7-2.2,1.7-4.1,3.1-5.7
				c1.3-1.6,3-2.9,4.9-3.8s4.1-1.4,6.6-1.4c1.6,0,3.1,0.2,4.5,0.7c1.6,0.5,3.2-0.4,3.6-1.6c0.3-0.9,0-2.1-1.5-2.6
				c-1.9-0.7-4.1-1-6.6-1c-3.2,0-6.1,0.6-8.7,1.8c-2.6,1.2-4.8,2.8-6.5,4.8s-3.1,4.4-4,7.2c-0.9,2.7-1.4,5.7-1.4,8.7
				c0,3.1,0.5,6,1.4,8.7s2.3,5.2,4,7.2c1.8,2,3.9,3.7,6.5,4.8c2.6,1.2,5.5,1.8,8.7,1.8c2.4,0,4.7-0.5,6.8-1.3c1-0.4,1.7-1.2,1.8-2.2
				C253.6,152.2,253.3,151.4,252.6,150.9z"/>
		</g>
	</g>
	<g>
		<g>
			<path class="st0" d="M201.1,60.8c-1.3,0-2.3,1-2.3,2.3v25.2c0,5.2-4.2,9.4-9.4,9.4c-1.3,0-2.3,1-2.3,2.3s1,2.3,2.3,2.3
				c7.8,0,14.1-6.3,14.1-14.1V63.1C203.4,61.8,202.4,60.8,201.1,60.8z"/>
			<path class="st0" d="M267.8,45.6c-0.6,0-1.2,0.2-1.7,0.6l-15,12.9c-1.4,1.2-2.3,3-2.4,4.8c-0.1,1.9,0.5,3.7,1.7,5.1l8.6,9.8
				c0.9,1.1,1.2,2.5,0.6,3.8s-1.8,2.1-3.2,2.1h-19.9v-9.8c0-7.8-6.3-14.1-14.1-14.1h-0.5c-7.8,0-14.1,6.3-14.1,14.1v0.8
				c0,7.8,6.3,14.1,14.1,14.1h1.3c1.3,0,2.3-1,2.3-2.3s-1-2.3-2.3-2.3h-1.3c-5.2,0-9.4-4.2-9.4-9.4V75c0-5.2,4.2-9.4,9.4-9.4h0.5
				c5.2,0,9.4,4.2,9.4,9.4v13.5c0,5.2-4.2,9.4-9.4,9.4c-1.3,0-2.3,1-2.3,2.3s1,2.3,2.3,2.3c7.4,0,13.5-5.8,14-13.1h19.9
				c3.3,0,6.1-1.8,7.5-4.8c1.3-3,0.8-6.3-1.3-8.8l-8.6-9.8c-0.4-0.5-0.6-1.1-0.6-1.8c0-0.6,0.3-1.2,0.8-1.7l15-12.9
				c0.5-0.4,0.8-1,0.8-1.6s-0.2-1.2-0.6-1.7C269,45.9,268.4,45.6,267.8,45.6z"/>
			<path class="st0" d="M404.4,52.1h-0.5c-7.8,0-14.1,6.3-14.1,14.1V67c0,7.8,6.3,14.1,14.1,14.1h1.3c1.3,0,2.3-1,2.3-2.3
				s-1-2.3-2.3-2.3h-1.3c-5.2,0-9.4-4.2-9.4-9.4v-0.8c0-5.2,4.2-9.4,9.4-9.4h0.5c5.2,0,9.4,4.2,9.4,9.4v9.1c0,5.2-4.2,9.4-9.4,9.4
				h-18.1c-2,0-3.6-1.6-3.6-3.6v-8.1V45.2c0-1.3-1-2.3-2.3-2.3s-2.3,1-2.3,2.3V73v8.1c0,2-1.6,3.6-3.6,3.6H363
				c0-0.1,0.1-0.1,0.1-0.2c1.3-3,0.8-6.3-1.3-8.8l-8.6-9.8c-0.4-0.5-0.6-1.1-0.6-1.8c0-0.6,0.3-1.2,0.8-1.7l15-12.9
				c0.5-0.4,0.8-1,0.8-1.6s-0.2-1.2-0.6-1.7s-1-0.8-1.6-0.8s-1.2,0.2-1.7,0.6l-15,12.9c-1.4,1.2-2.3,3-2.4,4.8
				c-0.1,1.9,0.5,3.7,1.7,5.1l8.6,9.8c0.9,1.1,1.2,2.5,0.6,3.8s-1.8,2.1-3.2,2.1h-4.7h-15.6c-0.1,0-0.2,0-0.3,0
				c0.5-1.1,0.8-2.3,0.8-3.6v-23c0-1.3-1-2.3-2.3-2.3s-2.3,1-2.3,2.3v23c0,2-1.6,3.6-3.6,3.6h-22.3c0,0.2,0-18.1,0-18.1
				c0-1.3-1-2.3-2.3-2.3s-2.3,1-2.3,2.3v18.3c0,5.3-4.3,9.7-9.7,9.7c-5.3,0-9.7-4.3-9.7-9.7v-7.9c0-1.3-1-2.3-2.3-2.3
				s-2.3,1-2.3,2.3v7.9c0,7.9,6.4,14.3,14.3,14.3c6.3,0,11.6-4,13.5-9.7c0.2-0.5,0-0.2,0-0.2h23.1c2,0,3.9-0.8,5.4-2
				c0.2,1.1,1.1,2,2.3,2h15.6h4.7h18.9c2.3,0,4.4-1,5.9-2.5c1.5,1.5,3.6,2.5,5.9,2.5h18.1c7.8,0,14.1-6.3,14.1-14.1v-9.1
				C418.5,58.4,412.1,52.1,404.4,52.1z"/>
			<path class="st0" d="M316.7,83.4c1.3,0,2.3-1,2.3-2.3V62.6c0-1.3-1-2.3-2.3-2.3s-2.3,1-2.3,2.3v18.5
				C314.4,82.4,315.4,83.4,316.7,83.4z"/>
			<path class="st0" d="M190.5,81.1v-23c0-1.3-1-2.3-2.3-2.3s-2.3,1-2.3,2.3v23c0,2-1.6,3.6-3.6,3.6h-20.8V66.6c0-1.3-1-2.3-2.3-2.3
				s-2.3,1-2.3,2.3v18.1h-14.3h-0.1V63.1c0-1.3-1-2.3-2.3-2.3s-2.3,1-2.3,2.3v25.2c0,5.2-4.2,9.4-9.4,9.4c-1.3,0-2.3,1-2.3,2.3
				s1,2.3,2.3,2.3c7.4,0,13.5-5.8,14-13.1c0.1,0,0.1,0,0.2,0h39.8C186.8,89.3,190.5,85.6,190.5,81.1z"/>
			<path class="st0" d="M172.8,83.4c1.3,0,2.3-1,2.3-2.3V62.6c0-1.3-1-2.3-2.3-2.3s-2.3,1-2.3,2.3v18.5
				C170.4,82.4,171.5,83.4,172.8,83.4z"/>
			<path class="st0" d="M140.1,59c0.9,0,1.8-0.4,2.4-1c0.6-0.6,1-1.5,1-2.4c0-0.2,0-0.5-0.1-0.7l0,0c0-0.2-0.1-0.4-0.1-0.5v-0.1
				c-0.1-0.2-0.2-0.4-0.3-0.5l-0.1-0.1c-0.1-0.2-0.2-0.3-0.4-0.5c-0.1-0.1-0.3-0.3-0.5-0.4c-0.2-0.1-0.4-0.2-0.5-0.3
				c-0.2-0.1-0.4-0.2-0.7-0.2c-0.4-0.1-0.8-0.1-1.3,0c-0.2,0-0.4,0.1-0.7,0.2c-0.2,0.1-0.4,0.2-0.5,0.3c-0.2,0.1-0.4,0.3-0.6,0.4
				c-0.1,0.1-0.3,0.3-0.4,0.5l-0.1,0.1c-0.1,0.2-0.2,0.4-0.3,0.5c-0.1,0.2-0.2,0.4-0.2,0.7c0,0.2-0.1,0.5-0.1,0.7
				c0,0.9,0.4,1.8,1,2.4C138.3,58.6,139.1,59,140.1,59z"/>
			<path class="st0" d="M403.9,49.5c0.9,0,1.8-0.4,2.4-1c0.7-0.6,1-1.5,1-2.4c0-0.2,0-0.5-0.1-0.7l0,0c0-0.2-0.1-0.4-0.1-0.5v-0.1
				c-0.1-0.2-0.2-0.4-0.3-0.5l-0.1-0.1c-0.1-0.2-0.2-0.3-0.4-0.5c-0.1-0.1-0.3-0.3-0.5-0.4c-0.2-0.1-0.4-0.2-0.5-0.3
				c-0.2-0.1-0.4-0.2-0.7-0.2c-0.4-0.1-0.8-0.1-1.3,0c-0.2,0-0.4,0.1-0.7,0.2c-0.2,0.1-0.4,0.2-0.5,0.3c-0.2,0.1-0.4,0.3-0.6,0.4
				c-0.1,0.1-0.3,0.3-0.4,0.5s-0.2,0.4-0.3,0.6c-0.1,0.2-0.2,0.4-0.2,0.6c0,0.2-0.1,0.5-0.1,0.7c0,0.9,0.4,1.8,1,2.4
				C402.1,49.1,402.9,49.5,403.9,49.5z"/>
		</g>
	</g>
</g>
<path class="st0" d="M16.6,158.4c8.6,12.7,19.9,23.4,32.7,31.7c6.4,4.1,14.8-0.6,14.8-8.2v-63.2C44.8,127.3,28.4,141.1,16.6,158.4z"
	/>
</svg>
